<svg width="80" height="80" viewBox="0 0 80 80" fill="none" xmlns="http://www.w3.org/2000/svg">
<path d="M63.3333 49.2307V25.8974L45 13.0765L26.6666 25.8974V34.8715H23.3333V24.2949L45 8.8457L66.6666 24.2949V49.2307H63.3333ZM46.9875 28.1407H49.6791V25.4482H46.9875V28.1407ZM40.3208 28.1407H43.0125V25.4482H40.3208V28.1407ZM46.9875 34.8074H49.6791V32.1149H46.9875V34.8074ZM40.3208 34.8074H43.0125V32.1149H40.3208V34.8074ZM21.3458 62.179L46.5641 69.5382L66.5258 63.3715C66.4613 62.3588 66.1588 61.629 65.6183 61.1824C65.0772 60.7357 64.465 60.5124 63.7816 60.5124H47.9666C46.5572 60.5124 45.28 60.4568 44.135 60.3457C42.9894 60.2346 41.8161 59.9699 40.615 59.5515L33.3141 57.1599L34.4425 53.8649L41.1925 56.3074C42.2652 56.7135 43.483 56.9571 44.8458 57.0382C46.2091 57.1193 48.0766 57.1663 50.4483 57.179C50.4483 56.1407 50.2572 55.301 49.875 54.6599C49.4927 54.0188 48.9447 53.5724 48.2308 53.3207L29.0516 46.2815C28.9233 46.2393 28.8055 46.2074 28.6983 46.1857C28.5916 46.1646 28.4741 46.154 28.3458 46.154H21.3458V62.179ZM8.01245 69.9999V42.8207H28.2708C28.5819 42.8207 28.9019 42.8557 29.2308 42.9257C29.5597 42.9963 29.8652 43.0788 30.1475 43.1732L49.41 50.2307C50.6022 50.6835 51.6288 51.4976 52.49 52.6732C53.3511 53.8482 53.7816 55.3501 53.7816 57.179H63.7816C65.7905 57.179 67.3291 57.8074 68.3975 59.064C69.4658 60.3201 70 61.914 70 63.8457V65.8974L46.7308 73.0765L21.3458 65.679V69.9999H8.01245ZM11.3458 66.6665H18.0125V46.154H11.3458V66.6665Z" fill="#8C8C8C"/>
</svg>
