<svg width="170" height="170" viewBox="0 0 170 170" fill="none" xmlns="http://www.w3.org/2000/svg">
<path d="M95.6257 141.667C95.6257 141.667 102.709 141.667 109.792 155.833C109.792 155.833 132.296 120.417 152.292 113.333M49.584 113.333H77.9173M49.584 77.9167H106.251M46.0423 24.7917C35.0207 25.1247 28.4544 26.3501 23.9069 30.8976C17.6807 37.1309 17.6807 47.1538 17.6807 67.2067V113.291C17.6807 133.351 17.6807 143.374 23.9069 149.607C30.1261 155.833 40.149 155.833 60.1807 155.833H77.889M109.736 24.7917C120.757 25.1247 127.331 26.3501 131.871 30.8976C138.104 37.1309 138.104 47.1538 138.104 67.2067V95.6251" stroke="url(#paint0_linear_676_5668)" stroke-width="10.625" stroke-linecap="round" stroke-linejoin="round"/>
<path d="M46.0137 26.5626C46.0137 19.7201 51.567 14.1667 58.4095 14.1667H97.3678C100.655 14.1667 103.808 15.4727 106.133 17.7974C108.458 20.1221 109.764 23.275 109.764 26.5626C109.764 29.8502 108.458 33.0031 106.133 35.3278C103.808 37.6524 100.655 38.9584 97.3678 38.9584H58.4095C55.1219 38.9584 51.969 37.6524 49.6443 35.3278C47.3197 33.0031 46.0137 29.8502 46.0137 26.5626Z" stroke="url(#paint1_linear_676_5668)" stroke-width="10.625" stroke-linecap="round" stroke-linejoin="round"/>
<defs>
<linearGradient id="paint0_linear_676_5668" x1="84.9865" y1="24.7917" x2="84.9865" y2="155.833" gradientUnits="userSpaceOnUse">
<stop stop-color="#003DFF"/>
<stop offset="1" stop-color="#00269F"/>
</linearGradient>
<linearGradient id="paint1_linear_676_5668" x1="77.8887" y1="14.1667" x2="77.8887" y2="38.9584" gradientUnits="userSpaceOnUse">
<stop stop-color="#003DFF"/>
<stop offset="1" stop-color="#00269F"/>
</linearGradient>
</defs>
</svg>
