<svg width="188" height="38" viewBox="0 0 188 38" fill="none" xmlns="http://www.w3.org/2000/svg">
<g clip-path="url(#clip0_676_5238)">
<path d="M22.2355 37.5933C22.2197 37.5933 22.2062 37.5933 22.1904 37.5933C6.47406 37.2027 0.327052 25.7326 0.0742188 25.2451L3.25496 23.5881L1.66346 24.4165L3.25269 23.5836C3.46941 23.9945 8.727 33.6428 22.2175 34.0062C22.2761 34.0039 22.3304 34.0039 22.3845 34.0039C25.2063 34.0017 34.6469 33.2884 40.9045 24.4165C34.6447 15.5471 25.2041 14.8315 22.3845 14.8315C22.3281 14.8315 22.2739 14.8315 22.2175 14.8293C16.856 14.9737 12.1583 16.5968 8.25293 19.6534L6.04064 16.8293C10.5804 13.2761 16.014 11.3957 22.1881 11.2422C22.2355 11.2422 22.2829 11.2422 22.3304 11.2445H22.3868C25.7684 11.2467 37.3603 12.1338 44.5774 23.455C44.9521 24.0419 44.9521 24.7936 44.5774 25.3828C37.3626 36.7038 25.7684 37.591 22.3868 37.591H22.3304C22.2987 37.591 22.2671 37.5933 22.2355 37.5933Z" fill="#003DFF"/>
<path d="M22.3645 26.7576C22.3487 26.7576 22.3351 26.7576 22.3193 26.7576C6.60302 26.367 0.456003 14.897 0.20317 14.4071C-0.0677233 13.888 -0.0677233 13.2694 0.20317 12.7524C0.45826 12.2649 6.60302 0.797031 22.3193 0.406494C22.3667 0.406494 22.4141 0.406496 22.4616 0.408754H22.518C25.8996 0.411011 37.4915 1.29818 44.7086 12.6193L41.6836 14.5471C35.4485 4.76334 25.4345 3.99807 22.5157 3.99582C22.4616 3.99582 22.4051 3.99582 22.3487 3.99356C11.0208 4.30057 5.49687 11.1497 3.88958 13.581C5.49461 16.0077 11.0163 22.8658 22.3487 23.1705C22.4051 23.1682 22.4616 23.1682 22.5157 23.1682C24.9493 23.166 31.2114 22.6716 36.8211 18.1161L39.083 20.8995C32.5816 26.1775 25.333 26.7508 22.5202 26.753H22.4638C22.43 26.7553 22.3983 26.7576 22.3645 26.7576Z" fill="#003DFF"/>
<path d="M25.4343 18.9356C25.4343 20.5586 24.1183 21.877 22.4929 21.877C20.8698 21.877 19.5537 20.5609 19.5537 18.9356C19.5537 17.3102 20.8698 15.9941 22.4929 15.9941C24.1183 15.9964 25.4343 17.3125 25.4343 18.9356Z" fill="#003DFF"/>
<path d="M22.2355 37.5933C22.2197 37.5933 22.2062 37.5933 22.1904 37.5933C6.47406 37.2027 0.327052 25.7326 0.0742188 25.2451L3.25496 23.5881L1.66346 24.4165L3.25269 23.5836C3.46941 23.9945 8.727 33.6428 22.2175 34.0062C22.2761 34.0039 22.3304 34.0039 22.3845 34.0039C25.2063 34.0017 34.6469 33.2884 40.9045 24.4165C34.6447 15.5471 25.2041 14.8315 22.3845 14.8315C22.3281 14.8315 22.2739 14.8315 22.2175 14.8293C16.856 14.9737 12.1583 16.5968 8.25293 19.6534L6.04064 16.8293C10.5804 13.2761 16.014 11.3957 22.1881 11.2422C22.2355 11.2422 22.2829 11.2422 22.3304 11.2445H22.3868C25.7684 11.2467 37.3603 12.1338 44.5774 23.455C44.9521 24.0419 44.9521 24.7936 44.5774 25.3828C37.3626 36.7038 25.7684 37.591 22.3868 37.591H22.3304C22.2987 37.591 22.2671 37.5933 22.2355 37.5933Z" fill="#003DFF"/>
<path d="M22.3645 26.7576C22.3487 26.7576 22.3351 26.7576 22.3193 26.7576C6.60302 26.367 0.456003 14.897 0.20317 14.4071C-0.0677233 13.888 -0.0677233 13.2694 0.20317 12.7524C0.45826 12.2649 6.60302 0.797031 22.3193 0.406494C22.3667 0.406494 22.4141 0.406496 22.4616 0.408754H22.518C25.8996 0.411011 37.4915 1.29818 44.7086 12.6193L41.6836 14.5471C35.4485 4.76334 25.4345 3.99807 22.5157 3.99582C22.4616 3.99582 22.4051 3.99582 22.3487 3.99356C11.0208 4.30057 5.49687 11.1497 3.88958 13.581C5.49461 16.0077 11.0163 22.8658 22.3487 23.1705C22.4051 23.1682 22.4616 23.1682 22.5157 23.1682C24.9493 23.166 31.2114 22.6716 36.8211 18.1161L39.083 20.8995C32.5816 26.1775 25.333 26.7508 22.5202 26.753H22.4638C22.43 26.7553 22.3983 26.7576 22.3645 26.7576Z" fill="#003DFF"/>
<path d="M52.0615 36.1238V33.1123H50.8809V32.6833H53.7275V33.1123H52.5469V36.1238H52.0615Z" fill="#003DFF"/>
<path d="M63.5098 35.697H65.5144V36.1238H63.0176V32.6833H65.4466V33.1101H63.5098V35.697ZM63.4668 34.1688H65.2367V34.5864H63.4668V34.1688Z" fill="#003DFF"/>
<path d="M76.6037 36.1643C76.3419 36.1643 76.1003 36.1214 75.8791 36.0334C75.6579 35.9453 75.4659 35.8234 75.3034 35.6653C75.1409 35.5051 75.0145 35.32 74.922 35.1077C74.8294 34.8933 74.7842 34.6608 74.7842 34.4057C74.7842 34.1506 74.8294 33.9159 74.922 33.7036C75.0145 33.4915 75.1409 33.3041 75.3057 33.146C75.4705 32.9858 75.6624 32.8639 75.8836 32.7781C76.1048 32.6924 76.3463 32.6472 76.6082 32.6472C76.8746 32.6472 77.1184 32.6924 77.3442 32.7826C77.5676 32.8729 77.7595 33.0061 77.9153 33.1822L77.5948 33.4915C77.4638 33.3538 77.3171 33.2522 77.1523 33.1845C76.9875 33.1167 76.8136 33.0828 76.6263 33.0828C76.4322 33.0828 76.2538 33.1167 76.089 33.1822C75.9243 33.2477 75.7797 33.3402 75.6579 33.4576C75.536 33.5772 75.4434 33.7172 75.3757 33.8775C75.308 34.04 75.2741 34.2161 75.2741 34.4057C75.2741 34.5954 75.308 34.7714 75.3757 34.934C75.4434 35.0965 75.5382 35.2365 75.6579 35.3539C75.7797 35.4712 75.922 35.5638 76.089 35.6293C76.2538 35.6947 76.4344 35.7286 76.6263 35.7286C76.8136 35.7286 76.9875 35.6947 77.1523 35.627C77.3171 35.5593 77.4638 35.4554 77.5948 35.3155L77.9153 35.6247C77.7573 35.8009 77.5676 35.9363 77.3442 36.0266C77.1184 36.1191 76.8723 36.1643 76.6037 36.1643Z" fill="#003DFF"/>
<path d="M87.8691 36.1238H87.377V32.6833H87.8691V36.1238ZM89.8872 34.5909H87.8194V34.1642H89.8872V34.5909ZM89.8443 32.6833H90.3364V36.1238H89.8443V32.6833Z" fill="#003DFF"/>
<path d="M100.126 36.1238V32.6833H100.528L102.803 35.5096H102.591V32.6833H103.083V36.1238H102.679L100.406 33.2996H100.616V36.1238H100.126Z" fill="#003DFF"/>
<path d="M114.428 36.1643C114.166 36.1643 113.922 36.1191 113.699 36.0311C113.473 35.943 113.279 35.8188 113.116 35.6609C112.951 35.5006 112.825 35.3155 112.732 35.1033C112.64 34.8911 112.595 34.6586 112.595 34.4057C112.595 34.1529 112.642 33.9203 112.732 33.7082C112.825 33.496 112.951 33.3086 113.116 33.1506C113.279 32.9925 113.473 32.8684 113.696 32.7804C113.92 32.6924 114.164 32.6472 114.43 32.6472C114.692 32.6472 114.933 32.6901 115.156 32.7781C115.381 32.8661 115.573 32.9881 115.737 33.146C115.902 33.3064 116.028 33.4915 116.118 33.7059C116.209 33.9203 116.253 34.1551 116.253 34.4057C116.253 34.6608 116.209 34.8956 116.118 35.1077C116.028 35.32 115.902 35.5074 115.737 35.6653C115.573 35.8257 115.381 35.9475 115.156 36.0334C114.931 36.1191 114.69 36.1643 114.428 36.1643ZM114.423 35.7263C114.617 35.7263 114.794 35.6925 114.956 35.627C115.118 35.5615 115.259 35.469 115.379 35.3494C115.497 35.2297 115.59 35.0898 115.659 34.9295C115.726 34.7691 115.76 34.5931 115.76 34.4035C115.76 34.2138 115.726 34.04 115.659 33.8798C115.59 33.7194 115.497 33.5795 115.379 33.4599C115.259 33.338 115.118 33.2454 114.956 33.1799C114.794 33.1144 114.615 33.0806 114.423 33.0806C114.234 33.0806 114.057 33.1144 113.895 33.1799C113.732 33.2454 113.593 33.338 113.471 33.4599C113.349 33.5817 113.254 33.7217 113.189 33.8798C113.121 34.0378 113.086 34.2138 113.086 34.4035C113.086 34.5931 113.121 34.7691 113.189 34.9295C113.256 35.0898 113.351 35.2297 113.471 35.3494C113.593 35.469 113.732 35.5615 113.895 35.627C114.057 35.6947 114.231 35.7263 114.423 35.7263Z" fill="#003DFF"/>
<path d="M125.76 36.1238V32.6833H126.252V35.697H128.114V36.1238H125.76Z" fill="#003DFF"/>
<path d="M138.926 36.1643C138.665 36.1643 138.421 36.1191 138.197 36.0311C137.972 35.943 137.778 35.8188 137.615 35.6609C137.452 35.5006 137.324 35.3155 137.231 35.1033C137.138 34.8911 137.094 34.6586 137.094 34.4057C137.094 34.1529 137.141 33.9203 137.231 33.7082C137.324 33.496 137.45 33.3086 137.615 33.1506C137.78 32.9925 137.972 32.8684 138.195 32.7804C138.419 32.6924 138.663 32.6472 138.926 32.6472C139.189 32.6472 139.432 32.6901 139.653 32.7781C139.877 32.8661 140.069 32.9881 140.234 33.146C140.398 33.3064 140.525 33.4915 140.615 33.7059C140.705 33.9203 140.75 34.1551 140.75 34.4057C140.75 34.6608 140.705 34.8956 140.615 35.1077C140.525 35.32 140.398 35.5074 140.234 35.6653C140.069 35.8257 139.877 35.9475 139.653 36.0334C139.43 36.1191 139.189 36.1643 138.926 36.1643ZM138.922 35.7263C139.116 35.7263 139.292 35.6925 139.455 35.627C139.617 35.5615 139.758 35.469 139.877 35.3494C139.996 35.2297 140.089 35.0898 140.157 34.9295C140.225 34.7691 140.259 34.5931 140.259 34.4035C140.259 34.2138 140.225 34.04 140.157 33.8798C140.089 33.7194 139.996 33.5795 139.877 33.4599C139.758 33.338 139.617 33.2454 139.455 33.1799C139.292 33.1144 139.114 33.0806 138.922 33.0806C138.732 33.0806 138.556 33.1144 138.394 33.1799C138.231 33.2454 138.092 33.338 137.97 33.4599C137.848 33.5817 137.753 33.7217 137.688 33.8798C137.62 34.0378 137.585 34.2138 137.585 34.4035C137.585 34.5931 137.62 34.7691 137.688 34.9295C137.755 35.0898 137.85 35.2297 137.97 35.3494C138.092 35.469 138.231 35.5615 138.394 35.627C138.554 35.6947 138.73 35.7263 138.922 35.7263Z" fill="#003DFF"/>
<path d="M151.813 36.1643C151.547 36.1643 151.303 36.1214 151.079 36.0334C150.856 35.9453 150.663 35.8234 150.499 35.6653C150.334 35.5074 150.208 35.32 150.115 35.1077C150.023 34.8956 149.978 34.6608 149.978 34.4057C149.978 34.1506 150.023 33.9159 150.115 33.7036C150.208 33.4915 150.336 33.3041 150.501 33.146C150.665 32.9881 150.86 32.8639 151.084 32.7781C151.307 32.6901 151.551 32.6472 151.821 32.6472C152.093 32.6472 152.343 32.6924 152.569 32.7804C152.794 32.8684 152.987 33.0016 153.145 33.1776L152.84 33.4825C152.7 33.3447 152.547 33.2454 152.381 33.1799C152.217 33.1144 152.036 33.0828 151.844 33.0828C151.648 33.0828 151.465 33.1167 151.296 33.1822C151.126 33.2477 150.982 33.3402 150.858 33.4576C150.734 33.575 150.639 33.715 150.574 33.8775C150.505 34.04 150.472 34.2161 150.472 34.4057C150.472 34.5931 150.505 34.767 150.574 34.9295C150.641 35.0919 150.736 35.2319 150.858 35.3516C150.982 35.4712 151.126 35.5638 151.294 35.6293C151.461 35.6947 151.644 35.7286 151.84 35.7286C152.023 35.7286 152.198 35.6992 152.368 35.6428C152.537 35.5841 152.693 35.4893 152.838 35.3561L153.118 35.7286C152.946 35.8731 152.75 35.9814 152.522 36.0559C152.289 36.1259 152.057 36.1643 151.813 36.1643ZM152.644 35.6632V34.3854H153.116V35.7263L152.644 35.6632Z" fill="#003DFF"/>
<path d="M163.303 32.6833H162.812V36.1238H163.303V32.6833Z" fill="#003DFF"/>
<path d="M173.586 35.697H175.591V36.1238H173.095V32.6833H175.523V33.1101H173.586V35.697ZM173.542 34.1688H175.311V34.5864H173.542V34.1688Z" fill="#003DFF"/>
<path d="M186.146 36.1642C185.884 36.1642 185.634 36.1236 185.394 36.0446C185.154 35.9633 184.967 35.8595 184.83 35.733L185.013 35.3493C185.143 35.4645 185.31 35.5592 185.514 35.636C185.717 35.7105 185.929 35.7488 186.148 35.7488C186.349 35.7488 186.51 35.7263 186.634 35.6812C186.758 35.6338 186.851 35.5728 186.908 35.4915C186.967 35.4125 186.997 35.3199 186.997 35.2183C186.997 35.101 186.958 35.0061 186.882 34.9339C186.805 34.8617 186.706 34.8029 186.582 34.7601C186.457 34.7149 186.322 34.6766 186.175 34.645C186.028 34.6111 185.88 34.5727 185.731 34.5298C185.581 34.4847 185.446 34.4283 185.322 34.3605C185.198 34.2928 185.101 34.198 185.024 34.0829C184.947 33.9655 184.911 33.8165 184.911 33.6336C184.911 33.4575 184.958 33.2927 185.051 33.1438C185.143 32.9947 185.288 32.8751 185.482 32.7848C185.678 32.6946 185.925 32.6494 186.227 32.6494C186.426 32.6494 186.624 32.6765 186.821 32.7284C187.017 32.7803 187.188 32.857 187.331 32.9541L187.169 33.347C187.022 33.2476 186.866 33.1777 186.701 33.1324C186.537 33.0873 186.378 33.067 186.225 33.067C186.03 33.067 185.872 33.0918 185.748 33.1415C185.624 33.1912 185.534 33.2566 185.476 33.3379C185.417 33.4192 185.39 33.5117 185.39 33.6133C185.39 33.7352 185.428 33.8323 185.505 33.9045C185.581 33.9768 185.681 34.0332 185.805 34.076C185.929 34.119 186.064 34.1573 186.211 34.1912C186.358 34.2251 186.507 34.2634 186.656 34.3064C186.805 34.3493 186.94 34.4057 187.064 34.4734C187.186 34.5434 187.285 34.6336 187.36 34.7488C187.437 34.8639 187.473 35.0107 187.473 35.1912C187.473 35.3651 187.426 35.5254 187.331 35.6744C187.236 35.8233 187.089 35.943 186.891 36.0333C186.697 36.119 186.449 36.1642 186.146 36.1642Z" fill="#003DFF"/>
<path d="M61.1778 28.7712C60.1461 28.7712 59.1325 28.6967 58.137 28.5499C57.1415 28.4032 56.1888 28.2 55.2791 27.9427C54.3693 27.6853 53.5274 27.3716 52.7552 27.0014C51.981 26.6333 51.3105 26.2271 50.7461 25.7845L52.6627 21.4706C53.7441 22.2585 55.0465 22.9085 56.5704 23.4233C58.0941 23.938 59.6292 24.1976 61.1778 24.1976C63.0198 24.1976 64.3405 23.9199 65.1396 23.3669C65.9388 22.8138 66.3383 22.1207 66.3383 21.2854C66.3383 20.6467 66.1239 20.1365 65.6926 19.7549C65.2615 19.3734 64.6903 19.0484 63.9792 18.7775C63.2659 18.5066 62.4622 18.2673 61.5637 18.0596C60.6654 17.852 59.7443 17.6307 58.8007 17.3959C57.8548 17.1634 56.9315 16.8745 56.0353 16.529C55.1391 16.1837 54.3332 15.7367 53.6199 15.1836C52.9065 14.6306 52.3354 13.9443 51.9064 13.1204C51.4753 12.2964 51.2608 11.2828 51.2608 10.0796C51.2608 8.99824 51.4821 7.97788 51.9245 7.02073C52.367 6.06131 53.0307 5.22155 53.9134 4.49691C54.7982 3.77227 55.9157 3.20113 57.2679 2.78351C58.6201 2.36588 60.2048 2.1582 62.0221 2.1582C63.6429 2.1582 65.2277 2.34782 66.7762 2.72933C68.3248 3.11084 69.6996 3.66842 70.9051 4.40661L69.0991 8.75669C67.9207 8.07043 66.7221 7.55799 65.5053 7.22615C64.2885 6.89431 63.1146 6.72952 61.9859 6.72952C60.1664 6.72952 58.8639 7.02976 58.0783 7.63249C57.2905 8.23523 56.8999 8.96663 56.8999 9.82672C56.8999 10.4408 57.1143 10.9397 57.5455 11.3189C57.9745 11.7004 58.5456 12.0255 59.259 12.2964C59.9723 12.5672 60.776 12.7997 61.6744 12.9962C62.5706 13.1926 63.4917 13.407 64.4398 13.6418C65.3856 13.8766 66.3067 14.1632 67.2029 14.5087C68.0991 14.8541 68.905 15.2965 69.6161 15.836C70.3294 16.3778 70.9005 17.0596 71.3295 17.8813C71.7584 18.7052 71.9751 19.7053 71.9751 20.8859C71.9751 21.9424 71.7539 22.9492 71.3114 23.9087C70.869 24.8658 70.1985 25.7078 69.3023 26.4324C68.4038 27.1571 67.2819 27.7283 65.9297 28.1459C64.582 28.5635 62.995 28.7712 61.1778 28.7712Z" fill="#003DFF"/>
<path d="M90.7038 28.7712C88.7128 28.7712 86.8638 28.4394 85.1573 27.7757C83.4483 27.1119 81.9743 26.1909 80.7327 25.0102C79.491 23.8319 78.5204 22.43 77.8205 20.8091C77.1208 19.186 76.7686 17.405 76.7686 15.4635C76.7686 13.5222 77.1185 11.741 77.8205 10.1179C78.5204 8.49709 79.491 7.09522 80.7327 5.91683C81.9743 4.73845 83.4483 3.81515 85.1573 3.15373C86.8638 2.49004 88.7263 2.1582 90.7399 2.1582C92.977 2.1582 94.9839 2.53971 96.7673 3.30047C98.5484 4.06348 100.041 5.18091 101.246 6.65502L97.5958 10.0457C95.826 8.00723 93.6272 6.98686 90.9973 6.98686C89.7692 6.98686 88.6315 7.19681 87.5885 7.61218C86.5433 8.02981 85.6471 8.61449 84.8977 9.36396C84.1482 10.1134 83.5658 11.0052 83.1482 12.0368C82.7305 13.0684 82.5205 14.2129 82.5205 15.4658C82.5205 16.7187 82.7283 17.861 83.1482 18.8926C83.5658 19.9242 84.1482 20.816 84.8977 21.5654C85.6471 22.3149 86.5433 22.8973 87.5885 23.3149C88.6315 23.7325 89.7692 23.9403 90.9973 23.9403C93.6272 23.9403 95.826 22.9086 97.5958 20.8453L101.246 24.2721C100.041 25.7462 98.5416 26.8658 96.7492 27.6266C94.9546 28.392 92.9386 28.7712 90.7038 28.7712Z" fill="#003DFF"/>
<path d="M117.748 25.5994C117.733 25.5994 117.715 25.5994 117.699 25.5994C113.945 25.5069 111.403 23.9538 109.931 22.6693L112.556 19.6602C113.965 20.8904 115.71 21.5428 117.746 21.6038C117.769 21.6038 117.789 21.6038 117.809 21.6038C118.471 21.6038 120.783 21.4751 122.792 19.8497L125.304 22.9538C122.362 25.3353 119.092 25.595 117.816 25.5971C117.794 25.5994 117.771 25.5994 117.748 25.5994Z" fill="#003DFF"/>
<path d="M109.465 28.367H103.642L115.141 2.56445H120.783L132.318 28.367H126.385L117.942 8.20353L109.465 28.367Z" fill="#003DFF"/>
<path d="M137.407 28.367V2.56445H143.082V23.6851H156.13V28.367H137.407Z" fill="#003DFF"/>
<path d="M164.459 28.367H158.635L170.136 2.56445H175.775L187.313 28.367H181.379L172.937 8.20353L164.459 28.367Z" fill="#003DFF"/>
<path d="M173.078 25.5994C173.063 25.5994 173.045 25.5994 173.029 25.5994C169.275 25.5069 166.733 23.9538 165.261 22.6693L167.887 19.6602C169.296 20.8904 171.04 21.5428 173.076 21.6038C173.099 21.6038 173.12 21.6038 173.139 21.6038C173.801 21.6038 176.113 21.4751 178.122 19.8497L180.634 22.9538C177.693 25.3353 174.422 25.595 173.146 25.5971C173.124 25.5994 173.101 25.5994 173.078 25.5994Z" fill="#003DFF"/>
</g>
<defs>
<clipPath id="clip0_676_5238">
<rect width="188" height="37.1868" fill="white" transform="translate(0 0.406494)"/>
</clipPath>
</defs>
</svg>
