<svg width="80" height="80" viewBox="0 0 80 80" fill="none" xmlns="http://www.w3.org/2000/svg">
<path d="M40 37.9482C37.25 37.9482 34.8958 36.9691 32.9375 35.0107C30.9791 33.0524 30 30.6982 30 27.9482C30 25.1982 30.9791 22.8441 32.9375 20.8857C34.8958 18.9274 37.25 17.9482 40 17.9482C42.75 17.9482 45.1041 18.9274 47.0625 20.8857C49.0208 22.8441 50 25.1982 50 27.9482C50 30.6982 49.0208 33.0524 47.0625 35.0107C45.1041 36.9691 42.75 37.9482 40 37.9482ZM16.6666 62.0516V56.5641C16.6666 55.188 17.0672 53.9005 17.8683 52.7016C18.67 51.5032 19.748 50.5727 21.1025 49.9099C24.248 48.4016 27.3955 47.2702 30.545 46.5157C33.6944 45.7619 36.8461 45.3849 40 45.3849C43.1538 45.3849 46.3055 45.7619 49.455 46.5157C52.6044 47.2702 55.7519 48.4016 58.8975 49.9099C60.2519 50.5727 61.33 51.5032 62.1316 52.7016C62.9327 53.9005 63.3333 55.188 63.3333 56.5641V62.0516H16.6666ZM20 58.7182H60V56.5641C60 55.8246 59.7616 55.1302 59.285 54.4807C58.8088 53.8313 58.1497 53.2821 57.3075 52.8332C54.5641 51.5044 51.7355 50.4863 48.8216 49.7791C45.9077 49.0719 42.9672 48.7182 40 48.7182C37.0327 48.7182 34.0922 49.0719 31.1783 49.7791C28.2644 50.4863 25.4358 51.5044 22.6925 52.8332C21.8502 53.2821 21.1911 53.8313 20.715 54.4807C20.2383 55.1302 20 55.8246 20 56.5641V58.7182ZM40 34.6149C41.8333 34.6149 43.4027 33.9621 44.7083 32.6566C46.0138 31.351 46.6666 29.7816 46.6666 27.9482C46.6666 26.1149 46.0138 24.5455 44.7083 23.2399C43.4027 21.9344 41.8333 21.2816 40 21.2816C38.1666 21.2816 36.5972 21.9344 35.2916 23.2399C33.9861 24.5455 33.3333 26.1149 33.3333 27.9482C33.3333 29.7816 33.9861 31.351 35.2916 32.6566C36.5972 33.9621 38.1666 34.6149 40 34.6149Z" fill="#8C8C8C"/>
</svg>
