<svg width="80" height="80" viewBox="0 0 80 80" fill="none" xmlns="http://www.w3.org/2000/svg">
<path d="M25 63.3332C22.6922 63.3332 20.7264 62.5212 19.1025 60.8973C17.4786 59.2735 16.6667 57.3076 16.6667 54.9998H9.23083L9.96166 51.6665H17.5192C18.1219 50.1837 19.0942 48.9796 20.4358 48.054C21.7775 47.129 23.2989 46.6665 25 46.6665C26.7011 46.6665 28.2225 47.129 29.5642 48.054C30.9058 48.9796 31.878 50.1837 32.4808 51.6665H47.8717L55.1925 19.9998H18.6925L18.7692 19.6732C18.9314 18.8009 19.3533 18.0818 20.035 17.5157C20.7167 16.9496 21.5211 16.6665 22.4483 16.6665H59.3592L56.66 28.3332H63.59L72.6283 40.3848L69.7433 54.9998H65.8975C65.8975 57.3076 65.0856 59.2735 63.4617 60.8973C61.8378 62.5212 59.8719 63.3332 57.5642 63.3332C55.2564 63.3332 53.2906 62.5212 51.6667 60.8973C50.0428 59.2735 49.2308 57.3076 49.2308 54.9998H33.3333C33.3333 57.3076 32.5214 59.2735 30.8975 60.8973C29.2736 62.5212 27.3078 63.3332 25 63.3332ZM52.955 44.1665H68.4617L69.0517 41.1982L61.9233 31.6665H55.865L52.955 44.1665ZM54.385 23.3398L55.1925 19.9998L47.8717 51.6665L48.6792 48.3265L51.3208 36.6732L54.385 23.3398ZM5.57666 43.3265L6.40999 39.9932H21.3458L20.5125 43.3265H5.57666ZM12.2433 31.6732L13.0767 28.3398H31.3458L30.5125 31.6732H12.2433ZM25 59.9998C26.3717 59.9998 27.548 59.5096 28.5292 58.529C29.5097 57.5479 30 56.3715 30 54.9998C30 53.6282 29.5097 52.4518 28.5292 51.4707C27.548 50.4901 26.3717 49.9998 25 49.9998C23.6283 49.9998 22.4519 50.4901 21.4708 51.4707C20.4903 52.4518 20 53.6282 20 54.9998C20 56.3715 20.4903 57.5479 21.4708 58.529C22.4519 59.5096 23.6283 59.9998 25 59.9998ZM57.5642 59.9998C58.9358 59.9998 60.1122 59.5096 61.0933 58.529C62.0739 57.5479 62.5642 56.3715 62.5642 54.9998C62.5642 53.6282 62.0739 52.4518 61.0933 51.4707C60.1122 50.4901 58.9358 49.9998 57.5642 49.9998C56.1925 49.9998 55.0161 50.4901 54.035 51.4707C53.0544 52.4518 52.5642 53.6282 52.5642 54.9998C52.5642 56.3715 53.0544 57.5479 54.035 58.529C55.0161 59.5096 56.1925 59.9998 57.5642 59.9998Z" fill="#8C8C8C"/>
</svg>
